<?xml version="1.0" encoding="UTF-8"?>
<svg id="Calque_1" xmlns="http://www.w3.org/2000/svg" version="1.1" viewBox="0 0 726 557">
  <!-- Generator: Adobe Illustrator 29.1.0, SVG Export Plug-In . SVG Version: 2.1.0 Build 142)  -->
  <defs>
    <style>
      .st0 {
        stroke: #000;
      }

      .st0, .st1, .st2, .st3, .st4, .st5, .st6 {
        stroke-miterlimit: 10;
      }

      .st0, .st7, .st3, .st4 {
        fill: none;
      }

      .st8 {
        fill: #f8dfe7;
      }

      .st1 {
        stroke: #e88aa8;
      }

      .st1, .st5 {
        fill: #f3abbd;
      }

      .st9 {
        fill: #f38ca6;
      }

      .st10 {
        fill: #fae0e7;
      }

      .st2 {
        fill: #fff;
        stroke: #efc6d0;
      }

      .st11 {
        fill: #ecbdd0;
      }

      .st12 {
        fill: #ecbbcd;
      }

      .st3, .st5 {
        stroke: #e88fa8;
      }

      .st4 {
        stroke: #eeaec1;
        stroke-width: 4px;
      }

      .st13 {
        fill: #ffaacd;
      }

      .st6 {
        fill: #f7dee6;
        stroke: #ecafc2;
        stroke-width: 3px;
      }
    </style>
  </defs>
  <g>
    <g>
      <g>
        <path d="M181.8,500.8c0,.4.6.6.1,1.8-.9,2.4-4.6,2.3-5.3.2s-.4-3.2-.5-4.2c-.6-9.9.5-19.9.4-29.8-.6,0-.6,1.5-.7,2.1-1.4,8.4-.7,17.7-1.8,25.8-.6,4.4-5.3,5-5.9-.8-.5-4.5.5-13.3.8-18.3s1.6-6.4.2-8.9c-2.1,9.4-2.6,19.2-3.5,28.8-1.1,1.9-4.8,1.4-5.2-.8s.1-8.9.4-12.2c.7-8.3,2.5-16.4,3.6-24.6-.9-.2-.9.5-1.2,1.1-1.7,3.8-3.4,16.6-4,21.3s-.4,8.6-.7,8.9c-1.3,1-3.5,0-4.4-1.4-1.3-2.3,0-4.1-.2-6.5-1.3-.3-.6,1.4-1,2.6s-1.5,2.5-3,2c-2.2-.7-1.7-4.4-1.6-6.5.3-4.7,1.6-9.4,1.6-14.1-.6-.1-.5.8-.6,1.3-.5,2.3-1.2,10.6-3,11.5-5.3.9-3.7-4.5-3.1-8.1.9-5.7,2.6-12.8,4.4-18.2s3.8-8.8,3.9-9.7-.7-2-.8-3c-.6-6,2.4-19,4.1-25,10.8-38.3,41.1-68,75.5-81.2.6-.7-2.2-2.2-2.7-2.8-3.8-4.5-2.6-19.4-2.6-25.7s.4-6.2.4-9.1v-24.3l-.5-.7-9.8,8.6-9.5,47.1c-1,3.9-3.4,6.6-7.2,7-10.5,1.1-22.9-.7-33.6-.3-2.4-1.2-3.9-2.3-5-5-1.6-3.9-3.2-12.7-4.1-17.3s0-1.8,0-2.7l-1.2.3-4.7,20.5c-.9,2.4-3.5,4.3-5.9,4.5-10.6-.9-22.6,1.1-33,0-4.6-.5-6.5-3.9-7.6-8.3-2.1-8.4-2.7-18-4.8-26.5-26-14.5-41-41.6-37.6-73.7,5.3-49.5,54.7-74.7,95.2-81.8,48.7-8.6,99.1,1.3,145.8,16.1,40.3,12.8,79.4,31.7,122.8,25.9,38.7-5.1,56.7-26.2,68.1-65.1,2.7-9.2,5.1-24.8,9.9-32.3.8-1.3,2.5-2.1,3-3.3s.9-6.2,1.4-8.4c1.2-5.3,3-11.3,5-16.3,2-5,3.2-9.3,6.7-5.8s.2,2.8.2,4.8c1.9-.9,2.1-5,3.9-5.6s2.3,1.3,3.1,1.2c1.3-.2,1.7-4,4.7-1.9s-.2,5.9-1.3,8.2-9.8,21-8.8,22c1,0,1.8.3,2.3-.7s1.3-4.9,1.9-6.6c2-5.7,4.5-12.5,7.3-17.8s5.5-10.4,8.1-2.6c-5.1,9-9.1,18.8-11.6,29,1,.2.7-.2,1-.8,4.7-9.4,7.6-18.7,14.3-27.2,1.3-1.6,3.1-3.1,4.7-1,2.3,3.1-3.4,9.1-4.3,12l5.4-6.1c.9-.8,1.9-1.9,3.2-1.7,1.1.2,2.7,2.4,2.6,3.7l-12.1,18.5c0,.2,1.6-1.5,1.8-1.7,2.4-2.8,10.4-15.1,13-15.6s3.9,1.9,3.1,4.3-6.6,7.7-8.2,9.8-3.4,4.5-4,6.7c3.1-2.6,5.5-6.1,8.4-8.9s6.5-6.1,8.6-5.9,2.7,2.6,2.2,4.5-8.8,7.6-10.2,9c-2.2,2.2-4.8,5-6.8,7.4s-6.6,7.8-6.6,8.9.5,1.6.3,2.9c-.3,2.2-3.6,8.8-4.5,11.7-2.6,8-4.4,16.3-7.4,24.2-11.3,30.2-33.4,53.9-60.8,67.1-.6.9,3.6,4.6,3.6,7.2v79.1s.6.8.8.7l21.5-80.4c1.2-4.4,4.2-7,8.4-7.4,9.7-1,20.7.7,30.6,0,1.4.2,4.2,1.5,5.2,2.6,1.4,1.5,1.9,5.7,3.9,3.7,3.6-3.6,6.7-7.8,10.7-11.1,35.5-29.7,94-18.6,115.4,24.8,13.2,26.7,14.8,63.5,3,91-22.5,52.3-81.6,57.3-128.5,58.5-64.6,1.7-127.8-13.4-191.8-16.9-58.5-3.3-146.3,5.2-149.9,87.1-.2,4.3.8,12.7-.6,16.3s-1.7,1.8-1.8,3.3c-.1,2.1,3,11.9,3.9,14.6,1.7,5.3,3.8,10.4,5.7,15.6.1,2.5-2.4,3.6-4.2,2.4s-3.3-6.1-4-7.9c-1.2-3.3-1.7-7.4-3.7-10.1l2.8,19.8c.1,2.8-3.5,4-4.9,1.8s-.9-2.7-1.1-3.6c-1.8-8-3.2-19.1-4.1-27.3s0-1.3-.8-1.5l.8,15.9,2.4,16.9c-1.5,1.3-3.5,1.8-4.8,0s-.6-2.9-1.9-2.3-.4,2.5-2.4,2.6-2-2.7-2.5-4.2l-2.1-16.2v18.9-.4ZM537.8,55.1c-.6,0-.9,0-1.4.4-.9.7-4.4,8.5-5.1,10.2-.9,2.2-6.6,17.8-6.3,18.7s1.6,1,2,.7,2.1-8,2.7-9.5c2.2-6.5,5.3-12.7,8.5-18.7l-.2-1.7h-.2ZM529.8,55.5c-1.8-.4-2.3,1.2-3,2.6-1.4,2.5-11.6,25.1-10.7,26.1l2.2-.4,4.9-14.6,6.5-13.6h0ZM507.7,85.5c2.5.2,1.7-2,2.1-3.6,1.7-7.5,4-14.8,6.7-21.9.5-1.3,2.2-2.7.7-4-3.6,2.3-10.7,28.1-9.5,29.5ZM513.6,84.1c1.6-9.3,6.3-17.6,10.4-26l-.4-1.3c-.6,0-.8.6-1.1,1-1.5,2.5-3.2,6.3-4.5,9.1-2.7,5.6-5.5,11.4-6.3,17.8l1.9-.5h0ZM533,87.6c3.5-10.4,9.3-19.5,14.5-28.9l-.6-1.5c-1.1,0-6.4,8.5-7.2,10-2.4,4.2-4.9,9.5-6.8,13.9s-4,6.9,0,6.4h0ZM551.8,63c-1.7.5-12.6,17.6-14.1,20.4s-5,7.3-.9,6.9c3.7-7,8-13.8,12.6-20.3.9-1.3,4.5-5,4.2-6.3l-1-.7c-.2,0-.5,0-.7,0h0ZM541.8,94.5c.6-.6,1.9-4.1,2.6-5.2,1-1.8,2.2-3.8,3.4-5.5,3.1-4.5,9.6-10.1,11.8-14.2.9-1.8,0-2.4-1.6-1.3s-4.3,4.9-5.8,6.7c-4.4,5.4-8.4,11.2-12.4,17-.8,1.8.5,1.7,1.2,3,.2-.3.7-.3.9-.5h-.1ZM566.3,75.8c.7-.9,0-2.6-.8-2.4s-8.8,7.3-9.9,8.4-12.9,14.2-12.9,15.2,1.1,2,1.6,1.8c5.1-6.9,10.8-12.9,16.9-18.7,1.3-1.3,4.1-3,5.1-4.3h0ZM105.6,190.4c27.2-27.3,81.1-29.5,115.8-24,69.9,11.1,126.7,58.3,199.6,52.9,48.4-3.6,93.7-32.4,111.4-82.6,2.5-7.2,4.3-14.7,6.6-21.9.9-2.8,4.3-9.7,4-12-.7-5.6-9.7-13.1-14.4-14.9-6-2.3-20.9-3.2-24.9,3.1-5,7.8-8.3,28.6-11.6,38.7-11.4,34.7-31.1,54-65.5,58.7-52.1,7.2-100-20-149.3-32.9-58.1-15.1-136.2-22.4-186.3,19.7-46.2,38.8-35.8,111.1,21.6,128.3,43.8,13.1,109.4-15.1,131.4-58.6,22-43.5,11.3-33.7-2.2-41.9s-2.3-1.2-3.2-1.7c-4.9-2.6-8.2-3.6-13.9-3.3s-7,1.2-7.9,2.5.9,1.9.8,3.2c-2-.4-3.2-2.4-5.3-3.2-4.9-1.9-10.4,1.1-13.2,5.6.2,1,3.2.5,4.1.7,2.1.5,3.5,3.4,3.8,5.4,2,12.5-6.7,26.1-14,35-5,6.1-10.9,11.2-16.9,16.2,2.3,0,5-2,7-3.3,7.5-4.5,15.9-11,21.7-17.8s1.8-3.2,2.6-3.3l1.1.7c-3.5,6.5-10,11.8-15.8,16-25.3,18.6-59.5,27.7-88.4,13.1s-35.7-38.3-26.9-65.2,3.3-8.5,5.8-12l1.2.5c-7.1,13.1-10.5,27.1-6.3,42,1.5,5.2,5.3,13.6,8.6,17.7s.6,1.1,1.4.9l-6.8-36.3c-.3-5.2,3-9.6,7.8-10.2s14.2.6,20.9,0c14.8-26,46-35,72.4-39.2l4.7-1.2c-27-.2-55.2,6.4-77.4,23.5s-5.1,5-6.5,5.6-.8,0-.6-.6c.3-1.1,2.1-3.1,3-3.9h0ZM331.1,205.4c-24.5-9-48.2-20.5-73.1-28.1-31.1-9.5-53.6-13.6-85.9-6.5-21.9,4.8-47.2,14.3-59.8,35.3,6.7.4,10.9,1.2,12.8,8.8,1.6,6.5,1.8,14.2,3.4,20.6s.4,1.2.9,1.6c2.3-9.1,3.1-19,6.7-27.5,1.7-1.9,3.7-3.1,6.2-3.3,5.9-.6,18.6-.6,24.6,0,3.3.3,6.3,2.3,7.5,5.8l5.3,25.1c2.2-7.2,2.5-15.4,4.4-22.6,1.2-4.8,3.2-7.5,8.1-8.2s3.4.3,4.6-.3,1.8-2.5,2.6-3.3c3.3-3.2,7.1-5.3,11.6-4.7s3,1.2,3.7,1.2,2.8-1.5,3.9-1.8c11.4-3.8,21.4.9,29.9,8.8h49.8c7.4,1.8,7.7,9.3,7.5,16.1.8.2.8-.3,1.1-.7,6.5-7.7,12-12,21.4-15.1,1-.3,2.4,0,2.8-1.1h0ZM224.6,391.2c31.9-34.2,91.9-36.8,134-34.1,73.4,4.8,145.6,22.8,219.6,15.2,42.7-4.4,85.9-18.6,99.7-67.5,6.5-22.9,4.2-51.7-5.1-73.4-21.9-51.3-92.6-60.2-125.8-17.1-1.7,2.3-4.9,6.1-4.3,9,4.2,12.7,6.5,26.6,10.8,39.2.5,1.5,2.2,6.8,3,7.6s.5.5,1,.4c0-20.3,16-41.5,33.3-48.1,40.9-15.6,72.8,29.7,68,70.9-.3,2.5-3.5,18-4.8,18.9s-1.3,0-1.6-.6c5-13.5,6.8-30.5,3.1-44.6s0-1.3-.7-1.2c-.5,9.4-1.5,18-4.8,26.7-22,58.4-99.1,71.6-150.2,64-6.2-.9-21.2-2.9-26.4-5.4s-.9-.4-1.2-.9c0-.5.3-.9.7-1,1.4-.5,8.9,2,10.9,2.4,35.7,7.6,80.1,8,113.6-9.1.6-.3,2-1,2.3-1.6-41.1,11.8-83.8,3-124.9-3.4-78.8-12.3-183.3-33.8-257.3,5.2-31.3,16.5-59.6,51-64.2,89.3-1.1,9-.6,12.2,4.8,19.1,8.6,11.1,22.5,17.6,36,15,2.6-.5,8.2-2.5,9.1-5.4s.1-12.3.4-17c1-20,8-38.6,21.1-52.6h-.1ZM380.4,250.1c1.9-2.5-1.2-13.8-2.4-16.9-2.2-5.6-8.1-13.6-13.3-16.1-3-1.4-14.7-5-17.9-5.4-21.6-2.8-44,12.2-41.5,37.9,1.2,12.3,9.9,20.4,19.3,26.1,5.5,3.3,21.9,10.4,25.1,14.6,6.9,9-11.6,14.1-14.5,4.9-.6-1.8-.5-5.9-2.4-6.5h-27.5c-1.9,1.1-1,7.6-.7,9.6,1.2,7.4,5.2,16.5,11,20.7,14.2-.2,28.4,0,42.6.9,2.9.2,10.3,1.8,12.5.5s7.7-10.2,8.8-13.5c6.9-20.3-2.3-33.5-18-43.1-6.5-4-17.8-8.4-23.2-13.2-8-7.3,4-13.4,10.2-8.4,3.9,3.1.6,8,5.8,8.9s19,.8,23.6.2,2.2-.6,2.5-1v-.2ZM100.5,213c-3.9.1-7.8.5-11.8.3-1.2.2-1.5,1.2-1.5,2.4l8.3,44.1c.8,2.5,9.4,6.8,11.9,8,14,6.6,29.4,7.5,44.3,4.5,9.7-2,18.3-6,25.9-12.9l-9.3-45.2-1.1-1-25-.2-1.5,1-12.3,55.9-10.1-55.2c-.6-1.5-3.7-1.6-5.2-1.8-4-.3-8.7,0-12.7.1h.1ZM183,254.6c.7.2.8-.3,1.2-.6,8.4-7,20-23.7,21.2-35.3.1-1.4.6-4.9-.7-5.6-4,.8-8.3-.3-12.3.2s-1.6.3-2.2,1.1l-7.3,40.2h.1ZM439.3,219.1v33.5l-1,.7c-4.7.1-9.4-.2-14.1,0s-3.4,1.2-4.6-.2v-30.9c-.5-.9-1.3-.2-2.2-.2-8.2.1-18.4.6-26.3-1.2-.6-.1-1.1-.1-1.7-.1v101.9l1,.7c3.5.2,7,.5,10.5.9,4.9.6,10.4,1.8,15.3,2.2s2.7.3,3.4-.6v-40l.6-.7h18.5l.6.7v40.4c0,1.2,2,1.9,3,2,6.1.6,19,.7,25,0s1.8-.2,2-1.3c.4-35.1,0-70.3.2-105.4,0-1.9.9-6.2-1-7.6s-8.4-.6-10-.3-5.3,2.1-7.5,2.7c-3.6,1-7.3,2-11,2.5l-.7.6v-.3ZM506.8,212.9l-2.1,1.2-30.4,111.5c-.1,1.2.2,1.8,1.2,2.2h28.3c.7-.1,1-.9,1.3-1.5,1.6-4,1.8-10.3,3.1-14.5s.7-1,1.1-1.4c7.2.2,15.7-1,22.7-.3s1.5,0,2,.9c1.2,4.5,1.8,10.5,3.3,14.7s.6,1.5,1.3,2h29c1.4-.7.5-2.9.2-4.1-1.4-6.2-3.6-12.5-5.2-18.7-7.9-30.3-16.1-60.4-24.4-90.6-.5-.9-2-1.5-3-1.6-8.7-1.1-19.5.8-28.5.1h.1ZM261.5,254.3v-10.9c0-.4,1.3-1.3,1.8-1.1,10.6-.7,22.2,1,32.6,0s3.5-.8,3.8-3.3c.6-4.6.4-17.4,0-22.2,0-1-.9-3.7-1.8-3.7h-46.9c2.6,7.8.9,16.2-1.5,23.8-3.6,11.1-10.6,20.5-17.8,29.1v60.7c.2.4.5.8.8,1,.8.4,14.9.4,16.7.2,3.5-.4,8.2-2.4,11.9-3.2,10.5-2.3,21.7-4,32.4-5,2-.2,4.3.5,6.1-.4.5-.7.4-15.5.2-17.2s-2.2-3.3-4.2-3.3h-33.4c-1.1-3.9-.4-8-.2-11.9s-1-2.2.4-3c7.3-.9,15.1.4,22.3-.2s3.1-.6,3.4-3.3c.5-5.1.4-16.6,0-21.8s-.7-3.6-2.7-4.1c-7,.1-14-.2-20.9,0s-2.7,1-3-.2h0ZM383,228l.2-7.8c-.6-1.1-5.3-1.4-6.6-1.3,2.3,2.6,3.8,5.6,5.5,8.6s0,.8.9.6h0ZM426,246.7h6.6l.6-.7v-25.6c0-1.3-3.1,0-3.9.2-1.1.2-2.3,0-3.4,0v26.1h0ZM609.8,221.5v25.2h7.2v-23.3c0-1.7-5.9-2-7.2-2h0ZM603.8,285h19.3v40.2l1,.6c15.4-13.8,27.2-32.8,28.4-55,1-19.6-11.4-37.1-27.4-45.2-.7-.3-1.2-.8-2-.6v28l-.6.7h-18.7l-.4-31.7c-11.4.8-21.6,7.2-30,15.2l-.2,88c0,1.5.9,2.8,2.2,2.8,8.1-.9,18.3,1.1,26.2,0,1.8-.3,2.1-1.5,2.2-3.3.8-10,0-20.9,0-30.9s-.4-8.7,0-8.9h0ZM567.2,246.7c-.7-.1-1,.4-1.4.9-3.8,5.2-7,16.2-5.8,22.7l6.3,24.7c0,.1.8-.6.8-.7v-47.6h.1ZM286.2,290.6c-5.5.7-12.3-.5-17.9,0-.1,1,0,1.5,1,1.7h28.8c-.7-4.2,3-10.4,7-10.4h16.3c.2-.8-.2-.8-.7-1.2-1.4-1.1-3.3-1.9-4.8-3.1-8.9-6.8-15.7-16.7-16.2-28.8-3,.3-5.9.7-8.8,0,0,1.8,1.6,2.4,2.4,4.2s.7,2.3.8,3.4c.5,5.7.7,21,0,26.5s-4.2,7.2-7.8,7.6h0ZM379.1,257.6c-4.4.6-9.8-.4-14.3,0,.4,1.8,3,2.3,4.4,3.3,2.4,1.6,4.8,3.4,6.9,5.4s4.4,5.8,7,8.2l.2-18.3c-.3-.3-3.5,1.2-4.2,1.3h0ZM207.6,286.7c-.6-.6-4.2,2.5-5,3-5.8,3.7-12.7,6.9-19,9.4s-14.7,5.6-22.2,6.8l4.3,21.5c.6.8,1.5.8,2.4.9,7.1.7,21.4.7,28.6,0s1.7-.1,2.4-.9l8.6-40.9v.2ZM617.1,291.9c-2.3-.7-4.9-.7-7.2,0v34.6c0,1.4-1.6,4.8-2.6,5.9s-3.5,2.4-4.9,2.6c-4.9.8-22.3.7-27.3,0-1.4-.2-3.4-1.7-4-1.7s-2.6,1.6-4,1.7c-8.6,1.1-19.3-.9-28.2,0-8.2-1.6-7.7-10.9-9.8-17.6h-15.3c-2.7,7.1-1.7,16.7-11,17.6-6.3.6-19.1.6-25.4,0-2.8-.3-4.3-1.9-7.2-.9s-.7-.3-.6.9c17.1,2.2,34.1,5.9,51.3,7.8,24.8,2.8,53.5,4.3,77.5-3.6,2.7-.9,19-7.2,19.6-9.3.3-.8-.8-1.9-.8-2.1v-35.9h0ZM432.8,291.9h-6.8v36.1l7.6.9-.8-36.9h0ZM148,308.4c-11.2.9-23.4.8-34.3-2.3s-5.5-2.2-8.4-2.9v3.1c.7,5.2,2.3,13.6,3.6,18.7s.6,3,2.5,3.4c9.6-.7,20.3,1,29.8,0,2.6-.3,2.6-1,3.3-3.4,1.5-5.2,1.9-11.3,3.3-16.6h.2ZM383.4,315c-1.6-.4-1.3,1.2-2.1,2.3s-3.4,4.4-3.2,4.6l5.2.4v-7.4h.1ZM153.3,446.7c-.9-.2-.6.1-.9.6-3.3,5.7-6.6,20-7.4,26.7s-1.1,5.4,1.1,4.2c1.1-5.4,2-11,3.3-16.3s3.7-9.6,4.2-12.5-.2-1.7-.3-2.6h0ZM151.3,486.2c1.6-10.8,2.9-21.8,6.4-32.1l-1.4-2.3-1.2,2.6c-2.7,10-3.6,20.4-5,30.7l1.2,1h0ZM157.3,489.7c.7-10.3,1.7-21,5.2-30.7l-1.8-2.4c-.8-.2-.6.3-.8.9-3.1,8.9-3.1,21.2-4.3,30.6l.4,1.3,1.2.2h.1ZM166.4,461.9c-.3,0-.5.7-.6,1.1-1.2,7.4-2.6,16-3.2,23.5s-.7,6.4-.4,8.7,1.8,2.1,2,.4c.8-10.7,1.1-21.6,4.4-31.8.1-.7-1.8-1.9-2.1-1.9h0ZM175,466.2l-3.2-.9-1.6,31.1.6,1.5c1.5.5,1.7-2.6,1.8-3.7.3-3.5.2-7.3.5-10.8.5-5.7,1.2-11.5,2-17.2h-.1ZM199.7,466.2c-1,.3-.3,3.6,0,4.4,1.3,6.2,5.3,17.4,7.9,23.2s3.5,5.5,2.8,1.3c-.4-2.4-3-7.7-4-10.5-1.9-5.8-3.6-11.8-5.3-17.7-.2-.7-.7-.9-1.3-.7h0ZM194.8,468c-.2.6,0,1.2,0,1.8,1,8.1,2.5,18,4.1,26,.4,1.8,1.2,7.5,2.7,3.2l-5.2-31.4-1.6.3h0ZM181.4,467.9h-2.8c-.7,7.7-.4,15.5-.4,23.3s-.4,3-.4,4.8.8,4,.4,6c.8.9,1.8,1.1,2-.4.6-3.4-.4-7.9-.4-11.3l1.6-22.4h0ZM186.3,468.8h-2.4c.2,10.6.5,21.4,2.6,31.7,1.1,0,1.8-2.7,1.8-3.7,0-3-1.4-8.2-1.6-11.7-.4-5.4-.4-10.9-.4-16.3h0ZM193.5,501c.3-.4-1-6.9-1.2-8.1-.4-3-.9-6-1.3-9.1s-.2-14.4-.8-14.8l-1.2-.2v7.6c.2,4.8.6,11.2,1.3,16s1.2,7.4,1.8,8.1.8.5,1.4.4h0Z"/>
        <path class="st10" d="M224.6,391.2c-13.1,14.1-20,32.7-21.1,52.6-.2,4.7.8,13-.4,17s-6.5,4.9-9.1,5.4c-13.4,2.7-27.4-3.9-36-15-5.3-6.9-5.9-10.1-4.8-19.1,4.6-38.3,32.9-72.8,64.2-89.3,74.1-39,178.6-17.5,257.3-5.2,41.2,6.4,83.9,15.2,124.9,3.4-.4.6-1.7,1.3-2.3,1.6-33.5,17.1-77.9,16.7-113.6,9.1-2-.4-9.5-2.9-10.9-2.4s-.8.5-.7,1c.3.5.7.7,1.2.9,5.2,2.5,20.2,4.5,26.4,5.4,51.1,7.5,128.2-5.6,150.2-64,3.3-8.7,4.3-17.4,4.8-26.7.6-.1.6.8.7,1.2,3.7,14.1,1.9,31.1-3.1,44.6.3.6,1.2.9,1.6.6,1.3-.9,4.5-16.4,4.8-18.9,4.8-41.2-27.1-86.5-68-70.9-17.3,6.6-33.5,27.8-33.3,48.1-.5.1-.7,0-1-.4-.8-.8-2.5-6.1-3-7.6-4.2-12.7-6.5-26.5-10.8-39.2-.5-2.9,2.6-6.8,4.3-9,33.2-43.2,103.9-34.2,125.8,17.1,9.3,21.7,11.5,50.5,5.1,73.4-13.8,48.9-57,63.1-99.7,67.5-74,7.6-146.2-10.4-219.6-15.2-42.2-2.8-102.2,0-134,34.1h.1ZM561.6,214.6c1.7.3,2.1-1.7,3-2.6,18.7-18.8,45-24,66.5-7.1.8.6,4,4,4.3,4.1.6.1,1.4-.9,1.4-1.5,0-1.3-7.3-6.2-8.7-7.1-20.1-12.3-44.6-9-61.7,7.5s-5.8,5.6-4.8,6.7h0Z"/>
        <path class="st8" d="M105.6,190.4c-.8.8-2.7,2.9-3,3.9s0,.9.6.6c1.4-.6,4.9-4.3,6.5-5.6,22.1-17.1,50.4-23.7,77.4-23.5l-4.7,1.2c-26.4,4.2-57.6,13.3-72.4,39.2-6.6.5-14.3-.8-20.9,0s-8.2,5-7.8,10.2l6.8,36.3c-.8.2-1-.4-1.4-.9-3.3-4.1-7.1-12.5-8.6-17.7-4.2-14.9-.8-28.9,6.3-42l-1.2-.5c-2.5,3.5-4.4,7.8-5.8,12-8.8,26.9,3.8,53.4,26.9,65.2s63.1,5.5,88.4-13.1c5.7-4.2,12.3-9.6,15.8-16l-1.1-.7c-.8.1-1.9,2.5-2.6,3.3-5.8,6.8-14.2,13.3-21.7,17.8-7.5,4.5-4.8,3.2-7,3.3,5.9-5,11.8-10.1,16.9-16.2,7.3-8.9,16-22.4,14-35-.3-2.1-1.8-5-3.8-5.4s-3.9.3-4.1-.7c2.8-4.5,8.3-7.5,13.2-5.6s3.3,2.8,5.3,3.2c0-1.2-1.6-1.9-.8-3.2s6.3-2.4,7.9-2.5c5.6-.3,9,.7,13.9,3.3s2.5,1.3,3.2,1.7c13.4,8.1,8.1,30.1,2.2,41.9-22,43.5-87.5,71.7-131.4,58.6-57.4-17.2-67.8-89.4-21.6-128.3,50.1-42.1,128.2-34.8,186.3-19.7,49.2,12.8,97.1,40,149.3,32.9,34.4-4.7,54.1-24.1,65.5-58.7s6.6-30.9,11.6-38.7c4-6.3,18.9-5.4,24.9-3.1,4.7,1.8,13.7,9.3,14.4,14.9.3,2.4-3,9.2-4,12-2.4,7.2-4.1,14.8-6.6,21.9-17.7,50.2-63,79-111.4,82.6-73,5.4-129.7-41.8-199.6-52.9-34.6-5.5-88.5-3.3-115.8,24h0Z"/>
        <path class="st9" d="M439.3,219.1l.7-.6c3.7-.4,7.4-1.5,11-2.5s5.5-2.4,7.5-2.7,8.9-.5,10,.3c1.9,1.5,1,5.7,1,7.6-.1,35.1.3,70.3-.2,105.4-.2,1.1-1.2,1.2-2,1.3-6,.7-18.9.6-25,0-1,0-3-.7-3-2v-40.4l-.6-.7h-18.5l-.6.7v40c-.7,1-2.3.7-3.4.6-4.9-.3-10.4-1.6-15.3-2.2s-7-.7-10.5-.9l-1-.7v-101.9c.6,0,1.1,0,1.7.1,7.8,1.8,18,1.4,26.3,1.2s1.7-.7,2.2.2v30.9c1.2,1.4,3.1.3,4.6.2,4.7-.2,9.4.2,14.1,0l1-.7v-33.5.3Z"/>
        <path class="st9" d="M506.8,212.9c8.9.7,19.8-1.2,28.5-.1s2.4.7,3,1.6c8.3,30.2,16.4,60.3,24.4,90.6,1.6,6.2,3.8,12.5,5.2,18.7s1.2,3.4-.2,4.1h-29c-.7-.5-1-1.2-1.3-2-1.5-4.2-2.1-10.2-3.3-14.7-.5-.9-1.2-.8-2-.9-7.1-.8-15.6.4-22.7.3-.5.4-.9.8-1.1,1.4-1.3,4.2-1.5,10.4-3.1,14.5s-.6,1.4-1.3,1.7h-28.3c-1-.5-1.3-1.1-1.2-2.3l30.4-111.5,2.1-1.2v-.2ZM516.7,282.4h10.7l-5.8-26.5c-.8-.2-.6.3-.8.9-2.3,7.5-3.1,16.1-5.4,23.7l.2,1.9c.5.8,1,0,1.2,0h-.1Z"/>
        <path class="st9" d="M380.4,250.1c-.3.4-1.9.9-2.5,1-4.6.5-19.2.6-23.6-.2s-1.9-5.8-5.8-8.9c-6.2-4.9-18.2,1.2-10.2,8.4s16.7,9.3,23.2,13.2c15.7,9.6,25,22.7,18,43.1-1.1,3.3-6.1,11.8-8.8,13.5s-9.6-.3-12.5-.5c-14.2-.8-28.4-1-42.6-.9-5.8-4.2-9.7-13.4-11-20.7-.3-2-1.2-8.5.7-9.5h27.5c1.9.5,1.8,4.6,2.4,6.4,2.9,9.2,21.5,4.2,14.5-4.9-3.2-4.2-19.7-11.2-25.1-14.6-9.3-5.7-18.1-13.8-19.3-26.1-2.5-25.6,19.8-40.7,41.5-37.9,3.2.4,14.9,4,17.9,5.4,5.2,2.5,11.1,10.5,13.3,16.1,1.2,3.1,4.3,14.4,2.4,16.9v.2Z"/>
        <path class="st9" d="M603.8,285c-.3.2,0,7.6,0,8.9,0,10,.8,20.9,0,30.9,0,1.7-.4,3-2.2,3.3-7.9,1.1-18-.9-26.2,0-1.3,0-2.4-1.3-2.2-2.8l.2-88c8.4-8,18.6-14.5,30-15.2l.4,31.7h18.7l.6-.7v-28c.8-.1,1.4.3,2,.6,16,8.1,28.4,25.7,27.4,45.2-1.2,22.2-13,41.2-28.4,55l-1-.6v-40.2h-19.3Z"/>
        <path class="st9" d="M261.5,254.3c.3,1.1,2.1.2,3,.2,7-.2,14,.2,20.9,0,1.9.5,2.5,2.1,2.7,4.1.4,5.2.5,16.7,0,21.8s-1.1,3.1-3.4,3.3c-7.2.6-15.1-.7-22.3.2-1.4.9-.3,2-.4,3-.3,4-.9,8,.2,12h33.4c1.9,0,3.9,1.1,4.2,3.3s.3,16.5-.2,17.2c-1.8.9-4.1.2-6.1.4-10.7,1-21.9,2.7-32.4,5-3.7.8-8.4,2.8-11.9,3.2s-15.8.3-16.7-.2-.6-.6-.7-1v-60.7c7.1-8.6,14-17.9,17.7-29.1,2.5-7.5,4.1-16,1.5-23.8h46.9c.9,0,1.7,2.7,1.8,3.7.4,4.8.6,17.6,0,22.2s-1.8,3.1-3.8,3.3c-10.4.9-22.1-.7-32.6,0-.5-.2-1.8.8-1.8,1.1v10.9h0Z"/>
        <path class="st9" d="M100.5,213c4.1-.1,8.7-.4,12.7-.1s4.6.3,5.2,1.8l10.1,55.2,12.3-55.9,1.5-1,25,.2,1.1,1,9.3,45.2c-7.6,6.9-16.2,10.9-25.9,12.9-14.9,3.1-30.3,2.2-44.3-4.5s-11.1-5.5-11.9-8l-8.3-44.1c0-1.2.3-2.2,1.5-2.4,3.9.2,7.9-.2,11.8-.3h-.1Z"/>
        <path class="st9" d="M207.6,286.7l-8.6,40.9c-.7.7-1.5.8-2.4.9-7.2.7-21.5.7-28.6,0-.9,0-1.7,0-2.4-.9l-4.3-21.5c7.6-1.3,15.1-3.9,22.2-6.8s13.2-5.8,19-9.4,4.4-3.6,5-3v-.2Z"/>
        <path class="st9" d="M148,308.4c-1.4,5.3-1.8,11.4-3.3,16.6s-.7,3.1-3.3,3.4c-9.4.9-20.2-.7-29.8,0-1.9-.3-2.1-1.7-2.5-3.4-1.3-5-3-13.5-3.6-18.7,0-1.1,0-2.1,0-3.1,2.8.7,5.5,2.1,8.4,2.9,10.9,3.1,23.1,3.2,34.3,2.3h-.2Z"/>
        <path class="st9" d="M183,254.6l7.3-40.2c.5-.9,1.3-1,2.2-1.1,4-.5,8.3.5,12.3-.2,1.3.7.8,4.2.7,5.6-1.2,11.6-12.8,28.3-21.2,35.3-.4.3-.5.8-1.2.6h-.1Z"/>
        <line class="st7" x1="426" y1="291.9" x2="432.8" y2="291.9"/>
        <line class="st7" x1="433.6" y1="328.9" x2="426" y2="328"/>
        <path class="st13" d="M566.3,75.8c-1,1.2-3.8,3-5.1,4.3-6.1,5.8-11.8,11.9-16.9,18.7-.5.2-1.6-1.2-1.6-1.8,0-1,11.3-13.6,12.9-15.2s9.2-8.3,9.9-8.4,1.5,1.6.8,2.4h0Z"/>
        <path class="st13" d="M175,466.2c-.8,5.7-1.5,11.4-2,17.2s-.2,7.4-.5,10.8-.2,4.3-1.8,3.7l-.6-1.5,1.6-31.1,3.2.9h.1Z"/>
        <path class="st13" d="M551.8,63c.2,0,.5,0,.7,0l1,.7c.3,1.3-3.3,5-4.2,6.3-4.6,6.5-8.8,13.3-12.6,20.3-4.1.4-.2-4.9.9-6.9s12.5-19.9,14.1-20.4h0Z"/>
        <path class="st13" d="M533,87.6c-4.1.5-1.1-4.1,0-6.4,1.9-4.5,4.4-9.7,6.8-13.9s6.1-10.1,7.2-10l.6,1.5c-5.3,9.3-11,18.5-14.5,28.9h0Z"/>
        <path class="st13" d="M181.4,467.9l-1.6,22.4c0,3.5,1,8,.4,11.3-.2,1.4-1.2,1.2-2,.4.4-2-.4-4.2-.4-6s.4-3.3.4-4.8c0-7.8-.3-15.6.4-23.3h2.8Z"/>
        <path class="st13" d="M186.3,468.8c0,5.4,0,10.9.4,16.3.3,3.5,1.7,8.7,1.6,11.7s-.7,3.7-1.8,3.7c-2.1-10.3-2.4-21.2-2.6-31.7h2.4Z"/>
        <path class="st13" d="M166.4,461.9c.4,0,2.2,1.2,2.1,1.9-3.2,10.2-3.6,21.1-4.4,31.8-.3,1.7-1.8,1.6-2-.4s.2-6.2.4-8.7c.6-7.4,2-16.1,3.2-23.5,0-.4.3-1,.6-1.1h0Z"/>
        <path class="st13" d="M541.8,94.5c-.2.2-.7.3-.9.5-.7-1.3-2-1.2-1.2-3,4-5.8,8-11.6,12.4-17s4.2-5.4,5.8-6.7,2.5-.6,1.6,1.3c-2.2,4.2-8.7,9.7-11.8,14.2-1.2,1.7-2.3,3.7-3.4,5.5-.7,1.1-2,4.6-2.6,5.2h.1Z"/>
        <path class="st13" d="M199.7,466.2c.6-.2,1.1,0,1.3.7,1.7,5.9,3.4,11.9,5.3,17.7s3.6,8.1,4,10.5c.7,4.2-2,.4-2.8-1.3-2.5-5.8-6.5-17.1-7.9-23.2s-.9-4.1,0-4.4h0Z"/>
        <path class="st13" d="M194.8,468l1.6-.3,5.2,31.4c-1.5,4.3-2.3-1.4-2.7-3.2-1.6-8-3.1-17.9-4.1-26s-.2-1.2,0-1.8h0Z"/>
        <path class="st13" d="M157.3,489.7l-1.2-.2-.4-1.3c1.2-9.5,1.1-21.7,4.3-30.6s0-1.1.8-.9l1.8,2.4c-3.5,9.7-4.5,20.3-5.2,30.7h-.1Z"/>
        <path class="st13" d="M537.8,55.1l.2,1.7c-3.2,6-6.2,12.2-8.5,18.7-.5,1.5-2.3,9.2-2.7,9.5s-1.8,0-2-.7,5.4-16.6,6.3-18.7c.7-1.7,4.2-9.4,5.1-10.2s.8-.5,1.4-.4h.2Z"/>
        <path class="st13" d="M153.3,446.7c0,1,.4,1.6.3,2.6-.4,2.9-3.2,8.9-4.2,12.5-1.4,5.4-2.2,10.9-3.3,16.3-2.2,1.3-1.3-2.6-1.1-4.2.8-6.8,4.2-21.1,7.4-26.7.3-.5,0-.8.9-.6h0Z"/>
        <path class="st13" d="M507.7,85.5c-1.3-1.4,5.9-27.2,9.5-29.5,1.5,1.3-.2,2.7-.7,4-2.6,7.1-5,14.4-6.7,21.9-.4,1.6.4,3.7-2.1,3.6h0Z"/>
        <path class="st13" d="M151.3,486.2l-1.2-1c1.5-10.3,2.3-20.7,5-30.7l1.2-2.6,1.4,2.3c-3.5,10.3-4.8,21.3-6.4,32.1h0Z"/>
        <path class="st13" d="M193.5,501c-.6,0-.9.1-1.4-.4s-1.6-6.7-1.8-8.1c-.6-4.8-1.1-11.2-1.3-16s0-5.1,0-7.6l1.2.2c.6.4.6,12.6.8,14.8s.8,6.1,1.3,9.1,1.5,7.7,1.2,8.1h0Z"/>
        <path class="st13" d="M529.8,55.5l-6.5,13.6-4.9,14.6-2.2.4c-1-1,9.3-23.6,10.7-26.1s1.2-3,3-2.6h0Z"/>
        <path class="st13" d="M513.6,84.1l-1.9.5c.7-6.3,3.6-12.2,6.3-17.8s3-6.5,4.5-9.1.4-1.1,1.1-1l.4,1.3c-4,8.3-8.7,16.6-10.4,26h0Z"/>
        <path d="M561.6,214.6c-1-1.1,3.9-5.9,4.8-6.7,17.1-16.5,41.5-19.8,61.7-7.5,1.4.9,8.7,5.8,8.7,7.1s-.8,1.6-1.4,1.5-3.5-3.4-4.3-4.1c-21.6-16.9-47.8-11.7-66.5,7.1-.9.9-1.3,2.9-3,2.6h0Z"/>
        <path d="M516.7,282.4c-.2,0-.8.9-1.2,0l-.2-1.9c2.3-7.6,3.1-16.2,5.4-23.7s0-1,.8-.9l5.8,26.5h-10.7.1Z"/>
      </g>
      <g>
        <path class="st5" d="M231.8,347.8l-3.9,2.8h-.1c.7-.6,2.8-2.1,4-2.8-1.3-.5-2.8-.8-4.3-.8-7,0-12.7,5.8-12.7,13s5.7,13,12.7,13,7.9-2.1,10.2-5.3.2-.3.3-.4c1.4-2.1,1.8-2.4,1.8-5s-.8.5-2.1,1.9-.1.1-.2.2c-1.4,1.4-3.3,2.2-5.3,2.2-4.4,0-8-3.9-8-8.6s1.3-5.5,3.4-7,.3-.2.5-.3"/>
        <path class="st3" d="M159.2,305.5h0Z"/>
      </g>
      <path class="st1" d="M185.2,438.1l2.4-4.1h0c-.3.8-1.6,3-2.4,4.1,1.4,0,2.8-.4,4.2-1,6.4-2.8,9.2-10.4,6.3-17s-10.5-9.6-16.8-6.7-6.4,5.1-7.2,9,0,.3,0,.5c-.4,2.4-.6,2.9.4,5.3s.5-.8,1.1-2.5,0-.2.1-.3c.7-1.8,2.1-3.3,4-4.1,4-1.8,8.9.3,10.8,4.6s1,5.6-.3,7.8-.2.3-.3.5"/>
      <path class="st1" d="M343.6,350.6l4.4-1.8h.1c-.8.4-3.2,1.4-4.6,1.8,1.2.8,2.5,1.4,3.9,1.8,6.8,1.7,13.7-2.5,15.5-9.5s-2.3-14-9.1-15.7-8.2.1-11.2,2.7-.3.2-.4.3c-1.8,1.7-2.3,1.9-2.9,4.5s.9-.3,2.5-1.3.2,0,.2-.1c1.7-1,3.7-1.3,5.7-.8,4.3,1.1,6.8,5.7,5.6,10.3-.7,2.9-2.6,5-5,6s-.3.1-.5.2"/>
      <path class="st1" d="M517.9,109.3l-1.6,4.5h0c.2-.8,1-3.2,1.6-4.5-1.4.3-2.7.9-3.9,1.8-5.8,3.9-7.1,11.9-3.1,17.8,4,5.9,12,7.5,17.8,3.6s5.3-6.2,5.4-10.2,0-.3,0-.5c0-2.5,0-2.9-1.4-5.1s-.3.8-.7,2.7,0,.2,0,.3c-.4,1.9-1.5,3.6-3.1,4.8-3.6,2.5-8.8,1.3-11.5-2.6s-2-5.3-1.2-7.7,0-.3.2-.5"/>
      <path class="st1" d="M474.2,188.5l4.8-.5h.2c-.9.2-3.5.5-4.9.5.9,1.1,2,2,3.3,2.8,6.1,3.5,13.9,1.3,17.4-5s1.6-14.1-4.5-17.5-7.9-2.1-11.5-.5-.3.1-.5.2c-2.2,1.1-2.7,1.2-4,3.5s.9,0,2.7-.6.2,0,.3,0c1.9-.5,3.9-.3,5.7.7,3.8,2.2,5,7.3,2.6,11.4s-3.9,4.1-6.4,4.4-.4,0-.5,0"/>
      <path class="st1" d="M264.6,157.3l-3.3,1.4h-.1c.6-.3,2.4-1,3.4-1.4-.9-.6-1.9-1-3-1.2-5.1-1.1-10.2,2.1-11.3,7.1-1.1,5.1,2.2,10.1,7.3,11.2s6.1-.2,8.3-2.1.2-.2.3-.3c1.3-1.2,1.6-1.4,2.1-3.3s-.6.2-1.8,1-.1,0-.2.1c-1.2.7-2.7,1-4.2.7-3.2-.7-5.3-4-4.5-7.4s1.8-3.7,3.6-4.4.3,0,.4-.1"/>
      <path class="st1" d="M214,267.7l3.1-2.6h.1c-.5.5-2.2,1.9-3.2,2.6,1.2.3,2.4.5,3.7.4,6-.4,10.5-5.5,10.1-11.4s-5.6-10.3-11.6-9.9-6.6,2.2-8.4,5-.2.2-.2.4c-1,1.8-1.4,2-1.2,4.2s.6-.5,1.7-1.7.1-.1.2-.2c1.1-1.2,2.7-2,4.4-2.1,3.8-.3,7,2.7,7.3,6.6.3,3.9-.8,4.6-2.5,5.9s-.2.2-.4.3"/>
      <path class="st1" d="M147.1,165.2l2.9-.7h0c-.5.2-2.1.6-2.9.7.7.6,1.4,1.1,2.3,1.4,4,1.6,8.6-.4,10.2-4.4s-.4-8.6-4.4-10.2-5-.6-7.1.7-.2.1-.3.2c-1.2.8-1.5.9-2.1,2.4s.6-.1,1.6-.6.1,0,.2,0c1.1-.4,2.4-.5,3.5,0,2.5,1,3.7,4,2.7,6.7s-2,2.8-3.5,3.2-.2,0-.3,0"/>
      <path class="st1" d="M629.8,342.6l-2.2,2.2h0c.4-.4,1.6-1.6,2.3-2.2-.9-.2-1.8-.3-2.7-.2-4.4.5-7.5,4.8-6.9,9.5s4.6,8.1,9,7.6,4.8-2,6-4.3,0-.2,0-.3c.7-1.5.9-1.7.7-3.5s-.4.4-1.2,1.4,0,0,0,.1c-.8,1-1.9,1.7-3.1,1.8-2.8.3-5.3-1.9-5.7-5.1s.4-3.7,1.6-4.9.2-.2.3-.2"/>
    </g>
    <circle class="st2" cx="512.9" cy="146.4" r="3.1" transform="translate(286.2 629.2) rotate(-80.8)"/>
    <circle class="st2" cx="445.2" cy="201.7" r="3.1"/>
    <circle class="st2" cx="609.8" cy="206.8" r="3.1"/>
    <circle class="st2" cx="570.1" cy="225.1" r="3.1"/>
    <circle class="st2" cx="368.7" cy="204.8" r="3.1"/>
    <circle class="st2" cx="299.4" cy="171.5" r="3.1"/>
    <circle class="st2" cx="200.8" cy="154.9" r="3.1"/>
    <circle class="st2" cx="96.1" cy="183.7" r="3.1"/>
    <circle class="st2" cx="71.4" cy="225.4" r="3.1"/>
    <circle class="st2" cx="106.4" cy="286.6" r="3.1"/>
    <circle class="st2" cx="126.7" cy="277.9" r="3.1"/>
    <circle class="st2" cx="194.6" cy="269.1" r="3.1"/>
    <circle class="st2" cx="227.8" cy="229.8" r="3.1"/>
    <circle class="st2" cx="199.9" cy="378" r="3.1"/>
    <circle class="st2" cx="276.2" cy="329" r="3.1"/>
    <circle class="st2" cx="396.1" cy="337.5" r="3.1"/>
    <circle class="st2" cx="427.9" cy="349.6" r="3.1"/>
    <circle class="st2" cx="568.4" cy="358.8" r="3.1"/>
    <circle class="st2" cx="662.2" cy="308" r="3.1"/>
  </g>
  <path class="st4" d="M182.5,278.8c-19.5,16.1-38.9,19.9-68.9,10.8"/>
  <path class="st4" d="M242.9,211.7c2.2,16.8,1.4,24.3-11.2,36.1"/>
  <path class="st12" d="M182.6,167c-61.6,8.8-73.1,40.8-72.6,39.3-5.7.1-16.6-.5-22.1.2s-4.5,3.1-5.4,4.4c-2.3,3.3-.2,10.9-.2,10.9l5.9,30.9c-.8,0-6.3-4.1-11.2-24.4s-.2-20.2,2.9-24.8,18.7-3.7,23.3-8.1c9.1-8.7,23.2-18.9,49-25.8,4.5-1.2,18.4-3.4,18.6-3.1l1.7-.2s11.8-.8,14.7-.5-4.2,1.1-4.5,1.1h-.1Z"/>
  <polygon class="st6" points="342.4 192.4 333.9 194.3 333.4 202.3 328.7 195.5 320.2 197.5 325.8 191.3 321 184.6 329.2 187.5 334.7 181.4 334.2 189.4 342.4 192.4"/>
  <polygon class="st6" points="428.5 205.6 420 209.8 421.6 218 414.8 212.4 406.4 216.6 410.6 208.9 403.9 203.3 413.3 204.1 417.6 196.5 419.1 204.7 428.5 205.6"/>
  <polygon class="st6" points="472.4 175.1 469.3 177.3 470.4 179.8 467.4 178.7 464.4 180.9 465.6 178.1 462.6 177 466.4 176.3 467.6 173.4 468.7 175.8 472.4 175.1"/>
  <polygon class="st6" points="532.7 105.2 529.9 105.8 529.8 108.2 528.2 106.1 525.4 106.7 527.2 104.8 525.7 102.7 528.4 103.6 530.2 101.7 530 104.2 532.7 105.2"/>
  <polygon class="st6" points="280.6 166.4 277.6 167.9 278.1 170.9 275.8 168.8 272.8 170.3 274.3 167.5 271.9 165.4 275.2 165.8 276.8 163 277.3 166 280.6 166.4"/>
  <polygon class="st6" points="138.2 158.1 137.1 158.4 137 159.7 136.4 158.6 135.3 158.9 136 157.9 135.4 156.9 136.5 157.3 137.2 156.3 137.1 157.6 138.2 158.1"/>
  <polygon class="st6" points="93.1 262.9 87.1 266.2 88.4 272.7 83.4 268.2 77.4 271.5 80.3 265.5 75.2 261 82.1 261.7 85 255.7 86.3 262.2 93.1 262.9"/>
  <polygon class="st6" points="234.5 206.2 230.8 207.5 231 210.9 228.5 208.3 224.8 209.5 227 206.6 224.5 203.9 228.4 204.8 230.5 201.9 230.7 205.3 234.5 206.2"/>
  <polygon class="st6" points="181.3 440.2 178.1 441.8 178.8 444.8 176.2 442.8 173 444.4 174.6 441.6 172 439.6 175.6 439.8 177.1 437 177.8 440 181.3 440.2"/>
  <polygon class="st6" points="245.1 357.6 242.3 354.7 239.2 356.5 240.5 353 237.6 350.2 241.2 350.9 242.5 347.4 243.5 351.3 247.1 351.9 244.1 353.7 245.1 357.6"/>
  <polygon class="st6" points="332.9 334.1 330.3 336.7 331.9 340 328.7 338.2 326.1 340.8 326.7 337.1 323.4 335.4 327 334.9 327.6 331.2 329.3 334.6 332.9 334.1"/>
  <polygon class="st6" points="643.6 339.1 640.3 338.5 638.9 341.2 638.3 338.1 635 337.5 637.9 336.2 637.3 333.1 639.7 335.4 642.6 334.1 641.2 336.8 643.6 339.1"/>
  <polygon class="st6" points="677.8 267.8 671.3 269.6 670.8 276.7 667.2 270.7 660.7 272.5 665 267.1 661.4 261.1 667.7 263.7 672 258.2 671.5 265.3 677.8 267.8"/>
  <polygon class="st6" points="651 226.1 646.7 227.8 647.1 231.7 644 228.8 639.7 230.5 642.1 227 639 224.1 643.6 224.8 646 221.4 646.4 225.3 651 226.1"/>
  <polygon class="st6" points="557 236.5 553.5 235 551.5 237.6 551.3 234.2 547.8 232.7 551.1 232.1 550.9 228.7 553.2 231.6 556.5 231 554.6 233.5 557 236.5"/>
  <path class="st11" d="M409.3,328.2s49.4,13.9,65.3,20.4c28,11.4,82.7,8.2,97.3,4.8,13.7-3.2,33.8-12.7,33.8-12.7,0,0-13.5,2.6-18.1,3.1-8.8,1-26.4,2.3-35.3,2.1-15.9-.4-47.6-3.5-63.3-5.9-9.9-1.5-39.5-7.4-39.5-7.4l-10.5-2.4h-11c0-.1-2.1-1.9-2.1-1.9h-15.2"/>
  <polygon class="st6" points="527.3 360.3 518.8 358.7 515.1 365.8 513.5 357.7 505 356 512.5 352.6 510.9 344.5 517.2 350.6 524.7 347.2 521 354.3 527.3 360.3"/>
  <path class="st0" d="M526.9,357.2"/>
  <g>
    <path d="M600,340.8c-.4.6-1.7,1.3-2.3,1.6-33.5,17.1-77.9,16.7-113.6,9.1-2-.4-9.5-2.9-10.9-2.4s-.8.5-.7,1c.3.5.7.7,1.2.9,5.2,2.5,20.2,4.5,26.4,5.4,30.7,4.5,71.6.9,103.5-14.8"/>
    <path class="st0" d="M600,340.8c-.4.6-1.7,1.3-2.3,1.6-33.5,17.1-77.9,16.7-113.6,9.1-2-.4-9.5-2.9-10.9-2.4s-.8.5-.7,1c.3.5.7.7,1.2.9,5.2,2.5,20.2,4.5,26.4,5.4,30.7,4.5,71.6.9,103.5-14.8"/>
  </g>
</svg>